<svg xmlns="http://www.w3.org/2000/svg" xmlns:xlink="http://www.w3.org/1999/xlink" viewBox="0 0 139.48 100.75"><defs><linearGradient id="a" x1="108.36" y1="54.78" x2="124.91" y2="12.23" gradientUnits="userSpaceOnUse"><stop offset="0" stop-color="#22a2a2"/><stop offset="1" stop-color="#74e0c1"/></linearGradient><linearGradient id="b" x1="9.4" y1="-4.34" x2="53.09" y2="67.09" gradientTransform="rotate(1.27 -1304.782 44.69)" xlink:href="#a"/><linearGradient id="c" x1="49.41" y1="-28.73" x2="93.1" y2="42.7" gradientTransform="rotate(1.27 -1304.782 44.69)" xlink:href="#a"/><linearGradient id="d" x1="29.29" y1="13.19" x2="72.93" y2="84.54" xlink:href="#a"/><linearGradient id="e" x1="109.94" y1="53.92" x2="124.68" y2="16.03" xlink:href="#a"/></defs><g data-name="Layer 2"><g data-name="Capa 1"><path d="M98.6 42.69a13.51 13.51 0 017.61-7.55 12.33 12.33 0 0110.24 0 13.49 13.49 0 017.55 7.67 16 16 0 01.43 10.73l-16.12 38.57a16.08 16.08 0 01-8.1 7.55A14 14 0 0181.92 92c-1.46-3.57-1-7.15.55-10.72z" fill="url(#a)"/><path d="M54.08 81.27c1.5 3.57 1 7.15-.43 10.72a14 14 0 01-18.28 7.67 13.5 13.5 0 01-7.62-7.55L1.14 27.5a13.52 13.52 0 01-.06-10.73 13.56 13.56 0 017.56-7.61 13.52 13.52 0 0110.73-.06A13.53 13.53 0 0127 16.66z" fill="url(#b)"/><path d="M108.29 81.27c1.5 3.57 1 7.15-.43 10.72a14 14 0 01-25.9.12L55.34 27.5a13.48 13.48 0 01-.05-10.73A14 14 0 0173.57 9.1a13.52 13.52 0 017.62 7.56z" fill="url(#c)"/><path d="M55.36 16.66a14 14 0 0118.34-7.5 13.56 13.56 0 017.56 7.61 13.52 13.52 0 01-.06 10.73L53.61 92.11a14 14 0 01-18.34 7.5A13.49 13.49 0 0127.71 92c-1.46-3.57-1-7.15.54-10.72z" fill="url(#d)"/><path d="M139.48 14.37a14.37 14.37 0 01-14.37 14.37c-7.93 0-13.88-6.44-13.88-14.37S117.18 0 125.11 0a14.37 14.37 0 0114.37 14.37z" fill="url(#e)"/></g></g></svg>